<?xml version="1.0" encoding="UTF-8" standalone="no"?>
<!DOCTYPE svg PUBLIC "-//W3C//DTD SVG 1.1//EN"
 "http://www.w3.org/Graphics/SVG/1.1/DTD/svg11.dtd">
<!-- Generated by graphviz version 2.26.3 (20100126.1600)
 -->
<!-- Title: models_diagram Pages: 1 -->
<svg width="452pt" height="1448pt"
 viewBox="0.00 0.00 452.50 1448.00" xmlns="http://www.w3.org/2000/svg" xmlns:xlink="http://www.w3.org/1999/xlink">
<g id="graph1" class="graph" transform="scale(1 1) rotate(0) translate(4 1444)">
<title>models_diagram</title>
<polygon fill="white" stroke="white" points="-4,5 -4,-1444 449.498,-1444 449.498,5 -4,5"/>
<!-- GameSet -->
<g id="node1" class="node"><title>GameSet</title>
<polyline fill="none" stroke="black" points="259.5,-505 400.5,-505 "/>
<path fill="none" stroke="black" d="M400.5,-505C406.5,-505 412.5,-511 412.5,-517"/>
<polyline fill="none" stroke="black" points="412.5,-517 412.5,-635 "/>
<path fill="none" stroke="black" d="M412.5,-635C412.5,-641 406.5,-647 400.5,-647"/>
<polyline fill="none" stroke="black" points="400.5,-647 259.5,-647 "/>
<path fill="none" stroke="black" d="M259.5,-647C253.5,-647 247.5,-641 247.5,-635"/>
<polyline fill="none" stroke="black" points="247.5,-635 247.5,-517 "/>
<path fill="none" stroke="black" d="M247.5,-517C247.5,-511 253.5,-505 259.5,-505"/>
<text text-anchor="middle" x="330" y="-630.4" font-family="Times Roman,serif" font-size="14.00">GameSet</text>
<polyline fill="none" stroke="black" points="247.5,-621 412.5,-621 "/>
<text text-anchor="start" x="255.5" y="-604.4" font-family="Times Roman,serif" font-size="14.00">id :integer</text>
<text text-anchor="start" x="255.5" y="-586.4" font-family="Times Roman,serif" font-size="14.00">winner_id :integer</text>
<text text-anchor="start" x="255.5" y="-568.4" font-family="Times Roman,serif" font-size="14.00">loser_id :integer</text>
<text text-anchor="start" x="255.5" y="-550.4" font-family="Times Roman,serif" font-size="14.00">match_id :integer</text>
<text text-anchor="start" x="255.5" y="-532.4" font-family="Times Roman,serif" font-size="14.00">created_at :datetime</text>
<text text-anchor="start" x="255.5" y="-514.4" font-family="Times Roman,serif" font-size="14.00">updated_at :datetime</text>
</g>
<!-- Game -->
<g id="node2" class="node"><title>Game</title>
<polyline fill="none" stroke="black" points="259.5,-361 400.5,-361 "/>
<path fill="none" stroke="black" d="M400.5,-361C406.5,-361 412.5,-367 412.5,-373"/>
<polyline fill="none" stroke="black" points="412.5,-373 412.5,-455 "/>
<path fill="none" stroke="black" d="M412.5,-455C412.5,-461 406.5,-467 400.5,-467"/>
<polyline fill="none" stroke="black" points="400.5,-467 259.5,-467 "/>
<path fill="none" stroke="black" d="M259.5,-467C253.5,-467 247.5,-461 247.5,-455"/>
<polyline fill="none" stroke="black" points="247.5,-455 247.5,-373 "/>
<path fill="none" stroke="black" d="M247.5,-373C247.5,-367 253.5,-361 259.5,-361"/>
<text text-anchor="middle" x="330" y="-450.4" font-family="Times Roman,serif" font-size="14.00">Game</text>
<polyline fill="none" stroke="black" points="247.5,-441 412.5,-441 "/>
<text text-anchor="start" x="255.5" y="-424.4" font-family="Times Roman,serif" font-size="14.00">id :integer</text>
<text text-anchor="start" x="255.5" y="-406.4" font-family="Times Roman,serif" font-size="14.00">game_set_id :integer</text>
<text text-anchor="start" x="255.5" y="-388.4" font-family="Times Roman,serif" font-size="14.00">created_at :datetime</text>
<text text-anchor="start" x="255.5" y="-370.4" font-family="Times Roman,serif" font-size="14.00">updated_at :datetime</text>
</g>
<!-- GameSet&#45;&gt;Game -->
<g id="edge2" class="edge"><title>GameSet&#45;&gt;Game</title>
<path fill="none" stroke="#9cf226" d="M330,-496.654C330,-490.315 330,-483.963 330,-477.752"/>
<ellipse fill="none" stroke="#9cf226" cx="330" cy="-500.944" rx="4" ry="4"/>
<polygon fill="#9cf226" stroke="#9cf226" points="330,-477.462 334.5,-467.462 330,-472.462 330,-467.462 330,-467.462 330,-467.462 330,-472.462 325.5,-467.462 330,-477.462 330,-477.462"/>
</g>
<!-- PlaysIn -->
<g id="node5" class="node"><title>PlaysIn</title>
<polyline fill="none" stroke="black" points="259.5,-181 400.5,-181 "/>
<path fill="none" stroke="black" d="M400.5,-181C406.5,-181 412.5,-187 412.5,-193"/>
<polyline fill="none" stroke="black" points="412.5,-193 412.5,-311 "/>
<path fill="none" stroke="black" d="M412.5,-311C412.5,-317 406.5,-323 400.5,-323"/>
<polyline fill="none" stroke="black" points="400.5,-323 259.5,-323 "/>
<path fill="none" stroke="black" d="M259.5,-323C253.5,-323 247.5,-317 247.5,-311"/>
<polyline fill="none" stroke="black" points="247.5,-311 247.5,-193 "/>
<path fill="none" stroke="black" d="M247.5,-193C247.5,-187 253.5,-181 259.5,-181"/>
<text text-anchor="middle" x="330" y="-306.4" font-family="Times Roman,serif" font-size="14.00">PlaysIn</text>
<polyline fill="none" stroke="black" points="247.5,-297 412.5,-297 "/>
<text text-anchor="start" x="255.5" y="-280.4" font-family="Times Roman,serif" font-size="14.00">id :integer</text>
<text text-anchor="start" x="255.5" y="-262.4" font-family="Times Roman,serif" font-size="14.00">game_id :integer</text>
<text text-anchor="start" x="255.5" y="-244.4" font-family="Times Roman,serif" font-size="14.00">team_id :integer</text>
<text text-anchor="start" x="255.5" y="-226.4" font-family="Times Roman,serif" font-size="14.00">won :boolean</text>
<text text-anchor="start" x="255.5" y="-208.4" font-family="Times Roman,serif" font-size="14.00">created_at :datetime</text>
<text text-anchor="start" x="255.5" y="-190.4" font-family="Times Roman,serif" font-size="14.00">updated_at :datetime</text>
</g>
<!-- Game&#45;&gt;PlaysIn -->
<g id="edge4" class="edge"><title>Game&#45;&gt;PlaysIn</title>
<path fill="none" stroke="#f4da0d" d="M330,-352.9C330,-346.521 330,-339.967 330,-333.409"/>
<ellipse fill="none" stroke="#f4da0d" cx="330" cy="-356.955" rx="4" ry="4"/>
<polygon fill="#f4da0d" stroke="#f4da0d" points="330,-333.126 334.5,-323.125 330,-328.126 330,-323.126 330,-323.126 330,-323.126 330,-328.126 325.5,-323.126 330,-333.126 330,-333.126"/>
</g>
<!-- ScoreType -->
<g id="node3" class="node"><title>ScoreType</title>
<polyline fill="none" stroke="black" points="12,-685 164,-685 "/>
<path fill="none" stroke="black" d="M164,-685C170,-685 176,-691 176,-697"/>
<polyline fill="none" stroke="black" points="176,-697 176,-851 "/>
<path fill="none" stroke="black" d="M176,-851C176,-857 170,-863 164,-863"/>
<polyline fill="none" stroke="black" points="164,-863 12,-863 "/>
<path fill="none" stroke="black" d="M12,-863C6,-863 0,-857 0,-851"/>
<polyline fill="none" stroke="black" points="0,-851 0,-697 "/>
<path fill="none" stroke="black" d="M0,-697C0,-691 6,-685 12,-685"/>
<text text-anchor="middle" x="88" y="-846.4" font-family="Times Roman,serif" font-size="14.00">ScoreType</text>
<polyline fill="none" stroke="black" points="0,-837 176,-837 "/>
<text text-anchor="start" x="8" y="-820.4" font-family="Times Roman,serif" font-size="14.00">id :integer</text>
<text text-anchor="start" x="8" y="-802.4" font-family="Times Roman,serif" font-size="14.00">competition_id :integer</text>
<text text-anchor="start" x="8" y="-784.4" font-family="Times Roman,serif" font-size="14.00">name :string</text>
<text text-anchor="start" x="8" y="-766.4" font-family="Times Roman,serif" font-size="14.00">created_at :datetime</text>
<text text-anchor="start" x="8" y="-748.4" font-family="Times Roman,serif" font-size="14.00">updated_at :datetime</text>
<text text-anchor="start" x="8" y="-730.4" font-family="Times Roman,serif" font-size="14.00">mandatory :boolean</text>
<text text-anchor="start" x="8" y="-712.4" font-family="Times Roman,serif" font-size="14.00">high_scored :boolean</text>
<text text-anchor="start" x="8" y="-694.4" font-family="Times Roman,serif" font-size="14.00">primary :boolean</text>
</g>
<!-- Score -->
<g id="node9" class="node"><title>Score</title>
<polyline fill="none" stroke="black" points="169.5,-1 314.5,-1 "/>
<path fill="none" stroke="black" d="M314.5,-1C320.5,-1 326.5,-7 326.5,-13"/>
<polyline fill="none" stroke="black" points="326.5,-13 326.5,-131 "/>
<path fill="none" stroke="black" d="M326.5,-131C326.5,-137 320.5,-143 314.5,-143"/>
<polyline fill="none" stroke="black" points="314.5,-143 169.5,-143 "/>
<path fill="none" stroke="black" d="M169.5,-143C163.5,-143 157.5,-137 157.5,-131"/>
<polyline fill="none" stroke="black" points="157.5,-131 157.5,-13 "/>
<path fill="none" stroke="black" d="M157.5,-13C157.5,-7 163.5,-1 169.5,-1"/>
<text text-anchor="middle" x="242" y="-126.4" font-family="Times Roman,serif" font-size="14.00">Score</text>
<polyline fill="none" stroke="black" points="157.5,-117 326.5,-117 "/>
<text text-anchor="start" x="165.5" y="-100.4" font-family="Times Roman,serif" font-size="14.00">id :integer</text>
<text text-anchor="start" x="165.5" y="-82.4" font-family="Times Roman,serif" font-size="14.00">score_type_id :integer</text>
<text text-anchor="start" x="165.5" y="-64.4" font-family="Times Roman,serif" font-size="14.00">score_value :float</text>
<text text-anchor="start" x="165.5" y="-46.4" font-family="Times Roman,serif" font-size="14.00">created_at :datetime</text>
<text text-anchor="start" x="165.5" y="-28.4" font-family="Times Roman,serif" font-size="14.00">updated_at :datetime</text>
<text text-anchor="start" x="165.5" y="-10.4" font-family="Times Roman,serif" font-size="14.00">plays_in_id :integer</text>
</g>
<!-- ScoreType&#45;&gt;Score -->
<g id="edge6" class="edge"><title>ScoreType&#45;&gt;Score</title>
<path fill="none" stroke="#9e3223" d="M109.334,-676.749C139.932,-537.27 195.722,-282.955 224.218,-153.058"/>
<ellipse fill="none" stroke="#9e3223" cx="108.44" cy="-680.828" rx="4.00001" ry="4.00001"/>
<polygon fill="#9e3223" stroke="#9e3223" points="224.246,-152.931 230.784,-144.128 225.317,-148.047 226.389,-143.163 226.389,-143.163 226.389,-143.163 225.317,-148.047 221.993,-142.199 224.246,-152.931 224.246,-152.931"/>
</g>
<!-- Player -->
<g id="node4" class="node"><title>Player</title>
<polyline fill="none" stroke="black" points="273.5,-1297 414.5,-1297 "/>
<path fill="none" stroke="black" d="M414.5,-1297C420.5,-1297 426.5,-1303 426.5,-1309"/>
<polyline fill="none" stroke="black" points="426.5,-1309 426.5,-1427 "/>
<path fill="none" stroke="black" d="M426.5,-1427C426.5,-1433 420.5,-1439 414.5,-1439"/>
<polyline fill="none" stroke="black" points="414.5,-1439 273.5,-1439 "/>
<path fill="none" stroke="black" d="M273.5,-1439C267.5,-1439 261.5,-1433 261.5,-1427"/>
<polyline fill="none" stroke="black" points="261.5,-1427 261.5,-1309 "/>
<path fill="none" stroke="black" d="M261.5,-1309C261.5,-1303 267.5,-1297 273.5,-1297"/>
<text text-anchor="middle" x="344" y="-1422.4" font-family="Times Roman,serif" font-size="14.00">Player</text>
<polyline fill="none" stroke="black" points="261.5,-1413 426.5,-1413 "/>
<text text-anchor="start" x="269.5" y="-1396.4" font-family="Times Roman,serif" font-size="14.00">id :integer</text>
<text text-anchor="start" x="269.5" y="-1378.4" font-family="Times Roman,serif" font-size="14.00">name :string</text>
<text text-anchor="start" x="269.5" y="-1360.4" font-family="Times Roman,serif" font-size="14.00">username :string</text>
<text text-anchor="start" x="269.5" y="-1342.4" font-family="Times Roman,serif" font-size="14.00">created_at :datetime</text>
<text text-anchor="start" x="269.5" y="-1324.4" font-family="Times Roman,serif" font-size="14.00">updated_at :datetime</text>
<text text-anchor="start" x="269.5" y="-1306.4" font-family="Times Roman,serif" font-size="14.00">solo_id :integer</text>
</g>
<!-- Team -->
<g id="node6" class="node"><title>Team</title>
<polyline fill="none" stroke="black" points="273.5,-1117 414.5,-1117 "/>
<path fill="none" stroke="black" d="M414.5,-1117C420.5,-1117 426.5,-1123 426.5,-1129"/>
<polyline fill="none" stroke="black" points="426.5,-1129 426.5,-1211 "/>
<path fill="none" stroke="black" d="M426.5,-1211C426.5,-1217 420.5,-1223 414.5,-1223"/>
<polyline fill="none" stroke="black" points="414.5,-1223 273.5,-1223 "/>
<path fill="none" stroke="black" d="M273.5,-1223C267.5,-1223 261.5,-1217 261.5,-1211"/>
<polyline fill="none" stroke="black" points="261.5,-1211 261.5,-1129 "/>
<path fill="none" stroke="black" d="M261.5,-1129C261.5,-1123 267.5,-1117 273.5,-1117"/>
<text text-anchor="middle" x="344" y="-1206.4" font-family="Times Roman,serif" font-size="14.00">Team</text>
<polyline fill="none" stroke="black" points="261.5,-1197 426.5,-1197 "/>
<text text-anchor="start" x="269.5" y="-1180.4" font-family="Times Roman,serif" font-size="14.00">id :integer</text>
<text text-anchor="start" x="269.5" y="-1162.4" font-family="Times Roman,serif" font-size="14.00">name :string</text>
<text text-anchor="start" x="269.5" y="-1144.4" font-family="Times Roman,serif" font-size="14.00">created_at :datetime</text>
<text text-anchor="start" x="269.5" y="-1126.4" font-family="Times Roman,serif" font-size="14.00">updated_at :datetime</text>
</g>
<!-- Player&#45;&gt;Team -->
<g id="edge8" class="edge"><title>Player&#45;&gt;Team</title>
<path fill="none" stroke="#9320b2" d="M344,-1286.72C344,-1268.97 344,-1250.44 344,-1233.51"/>
<polygon fill="#9320b2" stroke="#9320b2" points="344,-1286.8 339.5,-1296.8 344,-1291.8 344,-1296.8 344,-1296.8 344,-1296.8 344,-1291.8 348.5,-1296.8 344,-1286.8 344,-1286.8"/>
<polygon fill="#9320b2" stroke="#9320b2" points="344,-1233.19 348.5,-1223.19 344,-1228.19 344,-1223.19 344,-1223.19 344,-1223.19 344,-1228.19 339.5,-1223.19 344,-1233.19 344,-1233.19"/>
</g>
<!-- PlaysIn&#45;&gt;Score -->
<g id="edge10" class="edge"><title>PlaysIn&#45;&gt;Score</title>
<path fill="none" stroke="#816bac" d="M291.649,-173.555C288.258,-166.618 284.821,-159.588 281.421,-152.634"/>
<ellipse fill="none" stroke="#816bac" cx="293.463" cy="-177.266" rx="4.00002" ry="4.00002"/>
<polygon fill="#816bac" stroke="#816bac" points="281.208,-152.197 280.858,-141.237 279.012,-147.705 276.815,-143.213 276.815,-143.213 276.815,-143.213 279.012,-147.705 272.773,-145.19 281.208,-152.197 281.208,-152.197"/>
</g>
<!-- Team&#45;&gt;PlaysIn -->
<g id="edge14" class="edge"><title>Team&#45;&gt;PlaysIn</title>
<path fill="none" stroke="#1209f5" d="M388.694,-1110.02C401.351,-1090 413.668,-1066.94 421,-1044 457.629,-929.415 440,-894.297 440,-774 440,-774 440,-774 440,-576 440,-479.629 457.991,-448.988 421,-360 416.929,-350.206 411.635,-340.639 405.649,-331.5"/>
<ellipse fill="none" stroke="#1209f5" cx="386.38" cy="-1113.6" rx="4.00002" ry="4.00002"/>
<polygon fill="#1209f5" stroke="#1209f5" points="405.633,-331.477 403.68,-320.687 402.802,-327.356 399.971,-323.235 399.971,-323.235 399.971,-323.235 402.802,-327.356 396.262,-325.782 405.633,-331.477 405.633,-331.477"/>
</g>
<!-- Registration -->
<g id="node8" class="node"><title>Registration</title>
<polyline fill="none" stroke="black" points="77.5,-901 218.5,-901 "/>
<path fill="none" stroke="black" d="M218.5,-901C224.5,-901 230.5,-907 230.5,-913"/>
<polyline fill="none" stroke="black" points="230.5,-913 230.5,-1031 "/>
<path fill="none" stroke="black" d="M230.5,-1031C230.5,-1037 224.5,-1043 218.5,-1043"/>
<polyline fill="none" stroke="black" points="218.5,-1043 77.5,-1043 "/>
<path fill="none" stroke="black" d="M77.5,-1043C71.5,-1043 65.5,-1037 65.5,-1031"/>
<polyline fill="none" stroke="black" points="65.5,-1031 65.5,-913 "/>
<path fill="none" stroke="black" d="M65.5,-913C65.5,-907 71.5,-901 77.5,-901"/>
<text text-anchor="middle" x="148" y="-1026.4" font-family="Times Roman,serif" font-size="14.00">Registration</text>
<polyline fill="none" stroke="black" points="65.5,-1017 230.5,-1017 "/>
<text text-anchor="start" x="73.5" y="-1000.4" font-family="Times Roman,serif" font-size="14.00">id :integer</text>
<text text-anchor="start" x="73.5" y="-982.4" font-family="Times Roman,serif" font-size="14.00">created_at :datetime</text>
<text text-anchor="start" x="73.5" y="-964.4" font-family="Times Roman,serif" font-size="14.00">updated_at :datetime</text>
<text text-anchor="start" x="73.5" y="-946.4" font-family="Times Roman,serif" font-size="14.00">league_id :integer</text>
<text text-anchor="start" x="73.5" y="-928.4" font-family="Times Roman,serif" font-size="14.00">team_id :integer</text>
<text text-anchor="start" x="73.5" y="-910.4" font-family="Times Roman,serif" font-size="14.00">rating :decimal</text>
</g>
<!-- Team&#45;&gt;Registration -->
<g id="edge16" class="edge"><title>Team&#45;&gt;Registration</title>
<path fill="none" stroke="#d14294" d="M285.601,-1111C266.707,-1091.92 245.452,-1070.45 225.403,-1050.19"/>
<ellipse fill="none" stroke="#d14294" cx="288.662" cy="-1114.1" rx="4.00002" ry="4.00002"/>
<polygon fill="#d14294" stroke="#d14294" points="225.402,-1050.19 221.565,-1039.92 221.884,-1046.64 218.367,-1043.08 218.367,-1043.08 218.367,-1043.08 221.884,-1046.64 215.169,-1046.25 225.402,-1050.19 225.402,-1050.19"/>
</g>
<!-- Hangout -->
<g id="node11" class="node"><title>Hangout</title>
<polyline fill="none" stroke="black" points="259.5,-919 400.5,-919 "/>
<path fill="none" stroke="black" d="M400.5,-919C406.5,-919 412.5,-925 412.5,-931"/>
<polyline fill="none" stroke="black" points="412.5,-931 412.5,-1013 "/>
<path fill="none" stroke="black" d="M412.5,-1013C412.5,-1019 406.5,-1025 400.5,-1025"/>
<polyline fill="none" stroke="black" points="400.5,-1025 259.5,-1025 "/>
<path fill="none" stroke="black" d="M259.5,-1025C253.5,-1025 247.5,-1019 247.5,-1013"/>
<polyline fill="none" stroke="black" points="247.5,-1013 247.5,-931 "/>
<path fill="none" stroke="black" d="M247.5,-931C247.5,-925 253.5,-919 259.5,-919"/>
<text text-anchor="middle" x="330" y="-1008.4" font-family="Times Roman,serif" font-size="14.00">Hangout</text>
<polyline fill="none" stroke="black" points="247.5,-999 412.5,-999 "/>
<text text-anchor="start" x="255.5" y="-982.4" font-family="Times Roman,serif" font-size="14.00">id :integer</text>
<text text-anchor="start" x="255.5" y="-964.4" font-family="Times Roman,serif" font-size="14.00">league_id :integer</text>
<text text-anchor="start" x="255.5" y="-946.4" font-family="Times Roman,serif" font-size="14.00">created_at :datetime</text>
<text text-anchor="start" x="255.5" y="-928.4" font-family="Times Roman,serif" font-size="14.00">updated_at :datetime</text>
</g>
<!-- Team&#45;&gt;Hangout -->
<g id="edge12" class="edge"><title>Team&#45;&gt;Hangout</title>
<path fill="none" stroke="#1a97a3" d="M339.525,-1106.71C337.914,-1083.93 336.098,-1058.24 334.487,-1035.45"/>
<polygon fill="#1a97a3" stroke="#1a97a3" points="339.543,-1106.96 335.759,-1117.26 339.896,-1111.95 340.248,-1116.94 340.248,-1116.94 340.248,-1116.94 339.896,-1111.95 344.737,-1116.62 339.543,-1106.96 339.543,-1106.96"/>
<polygon fill="#1a97a3" stroke="#1a97a3" points="334.467,-1035.18 338.251,-1024.89 334.115,-1030.19 333.762,-1025.21 333.762,-1025.21 333.762,-1025.21 334.115,-1030.19 329.273,-1025.52 334.467,-1035.18 334.467,-1035.18"/>
</g>
<!-- Match -->
<g id="node7" class="node"><title>Match</title>
<polyline fill="none" stroke="black" points="259.5,-703 400.5,-703 "/>
<path fill="none" stroke="black" d="M400.5,-703C406.5,-703 412.5,-709 412.5,-715"/>
<polyline fill="none" stroke="black" points="412.5,-715 412.5,-833 "/>
<path fill="none" stroke="black" d="M412.5,-833C412.5,-839 406.5,-845 400.5,-845"/>
<polyline fill="none" stroke="black" points="400.5,-845 259.5,-845 "/>
<path fill="none" stroke="black" d="M259.5,-845C253.5,-845 247.5,-839 247.5,-833"/>
<polyline fill="none" stroke="black" points="247.5,-833 247.5,-715 "/>
<path fill="none" stroke="black" d="M247.5,-715C247.5,-709 253.5,-703 259.5,-703"/>
<text text-anchor="middle" x="330" y="-828.4" font-family="Times Roman,serif" font-size="14.00">Match</text>
<polyline fill="none" stroke="black" points="247.5,-819 412.5,-819 "/>
<text text-anchor="start" x="255.5" y="-802.4" font-family="Times Roman,serif" font-size="14.00">id :integer</text>
<text text-anchor="start" x="255.5" y="-784.4" font-family="Times Roman,serif" font-size="14.00">winner_id :integer</text>
<text text-anchor="start" x="255.5" y="-766.4" font-family="Times Roman,serif" font-size="14.00">loser_id :integer</text>
<text text-anchor="start" x="255.5" y="-748.4" font-family="Times Roman,serif" font-size="14.00">created_at :datetime</text>
<text text-anchor="start" x="255.5" y="-730.4" font-family="Times Roman,serif" font-size="14.00">updated_at :datetime</text>
<text text-anchor="start" x="255.5" y="-712.4" font-family="Times Roman,serif" font-size="14.00">hangout_id :integer</text>
</g>
<!-- Match&#45;&gt;GameSet -->
<g id="edge18" class="edge"><title>Match&#45;&gt;GameSet</title>
<path fill="none" stroke="#7873af" d="M330,-694.67C330,-682.421 330,-669.753 330,-657.459"/>
<ellipse fill="none" stroke="#7873af" cx="330" cy="-698.797" rx="4" ry="4"/>
<polygon fill="#7873af" stroke="#7873af" points="330,-657.236 334.5,-647.236 330,-652.236 330,-647.236 330,-647.236 330,-647.236 330,-652.236 325.5,-647.236 330,-657.236 330,-657.236"/>
</g>
<!-- League -->
<g id="node10" class="node"><title>League</title>
<polyline fill="none" stroke="black" points="73.5,-1081 232.5,-1081 "/>
<path fill="none" stroke="black" d="M232.5,-1081C238.5,-1081 244.5,-1087 244.5,-1093"/>
<polyline fill="none" stroke="black" points="244.5,-1093 244.5,-1247 "/>
<path fill="none" stroke="black" d="M244.5,-1247C244.5,-1253 238.5,-1259 232.5,-1259"/>
<polyline fill="none" stroke="black" points="232.5,-1259 73.5,-1259 "/>
<path fill="none" stroke="black" d="M73.5,-1259C67.5,-1259 61.5,-1253 61.5,-1247"/>
<polyline fill="none" stroke="black" points="61.5,-1247 61.5,-1093 "/>
<path fill="none" stroke="black" d="M61.5,-1093C61.5,-1087 67.5,-1081 73.5,-1081"/>
<text text-anchor="middle" x="153" y="-1242.4" font-family="Times Roman,serif" font-size="14.00">League</text>
<polyline fill="none" stroke="black" points="61.5,-1233 244.5,-1233 "/>
<text text-anchor="start" x="69.5" y="-1216.4" font-family="Times Roman,serif" font-size="14.00">id :integer</text>
<text text-anchor="start" x="69.5" y="-1198.4" font-family="Times Roman,serif" font-size="14.00">name :string</text>
<text text-anchor="start" x="69.5" y="-1180.4" font-family="Times Roman,serif" font-size="14.00">league_type :string</text>
<text text-anchor="start" x="69.5" y="-1162.4" font-family="Times Roman,serif" font-size="14.00">games_per_set :integer</text>
<text text-anchor="start" x="69.5" y="-1144.4" font-family="Times Roman,serif" font-size="14.00">sets_per_match :integer</text>
<text text-anchor="start" x="69.5" y="-1126.4" font-family="Times Roman,serif" font-size="14.00">competition_id :integer</text>
<text text-anchor="start" x="69.5" y="-1108.4" font-family="Times Roman,serif" font-size="14.00">created_at :datetime</text>
<text text-anchor="start" x="69.5" y="-1090.4" font-family="Times Roman,serif" font-size="14.00">updated_at :datetime</text>
</g>
<!-- League&#45;&gt;Registration -->
<g id="edge22" class="edge"><title>League&#45;&gt;Registration</title>
<path fill="none" stroke="#704596" d="M150.546,-1072.84C150.381,-1066.27 150.215,-1059.69 150.051,-1053.22"/>
<ellipse fill="none" stroke="#704596" cx="150.648" cy="-1076.85" rx="4" ry="4"/>
<polygon fill="#704596" stroke="#704596" points="150.049,-1053.15 154.295,-1043.04 149.923,-1048.15 149.797,-1043.16 149.797,-1043.16 149.797,-1043.16 149.923,-1048.15 145.298,-1043.27 150.049,-1053.15 150.049,-1053.15"/>
</g>
<!-- League&#45;&gt;Hangout -->
<g id="edge20" class="edge"><title>League&#45;&gt;Hangout</title>
<path fill="none" stroke="#1fc5cb" d="M238.28,-1074.6C250.967,-1060.41 263.742,-1046.12 275.561,-1032.9"/>
<ellipse fill="none" stroke="#1fc5cb" cx="235.363" cy="-1077.86" rx="4.00002" ry="4.00002"/>
<polygon fill="#1fc5cb" stroke="#1fc5cb" points="275.736,-1032.7 285.756,-1028.25 279.068,-1028.97 282.401,-1025.25 282.401,-1025.25 282.401,-1025.25 279.068,-1028.97 279.046,-1022.25 275.736,-1032.7 275.736,-1032.7"/>
</g>
<!-- Hangout&#45;&gt;Match -->
<g id="edge24" class="edge"><title>Hangout&#45;&gt;Match</title>
<path fill="none" stroke="#7dddfa" d="M330,-910.806C330,-893.257 330,-873.844 330,-855.288"/>
<ellipse fill="none" stroke="#7dddfa" cx="330" cy="-914.94" rx="4" ry="4"/>
<polygon fill="#7dddfa" stroke="#7dddfa" points="330,-855.085 334.5,-845.085 330,-850.085 330,-845.085 330,-845.085 330,-845.085 330,-850.085 325.5,-845.085 330,-855.085 330,-855.085"/>
</g>
<!-- Competition -->
<g id="node12" class="node"><title>Competition</title>
<polyline fill="none" stroke="black" points="22.5,-1315 163.5,-1315 "/>
<path fill="none" stroke="black" d="M163.5,-1315C169.5,-1315 175.5,-1321 175.5,-1327"/>
<polyline fill="none" stroke="black" points="175.5,-1327 175.5,-1409 "/>
<path fill="none" stroke="black" d="M175.5,-1409C175.5,-1415 169.5,-1421 163.5,-1421"/>
<polyline fill="none" stroke="black" points="163.5,-1421 22.5,-1421 "/>
<path fill="none" stroke="black" d="M22.5,-1421C16.5,-1421 10.5,-1415 10.5,-1409"/>
<polyline fill="none" stroke="black" points="10.5,-1409 10.5,-1327 "/>
<path fill="none" stroke="black" d="M10.5,-1327C10.5,-1321 16.5,-1315 22.5,-1315"/>
<text text-anchor="middle" x="93" y="-1404.4" font-family="Times Roman,serif" font-size="14.00">Competition</text>
<polyline fill="none" stroke="black" points="10.5,-1395 175.5,-1395 "/>
<text text-anchor="start" x="18.5" y="-1378.4" font-family="Times Roman,serif" font-size="14.00">id :integer</text>
<text text-anchor="start" x="18.5" y="-1360.4" font-family="Times Roman,serif" font-size="14.00">name :string</text>
<text text-anchor="start" x="18.5" y="-1342.4" font-family="Times Roman,serif" font-size="14.00">created_at :datetime</text>
<text text-anchor="start" x="18.5" y="-1324.4" font-family="Times Roman,serif" font-size="14.00">updated_at :datetime</text>
</g>
<!-- Competition&#45;&gt;ScoreType -->
<g id="edge26" class="edge"><title>Competition&#45;&gt;ScoreType</title>
<path fill="none" stroke="#e204e2" d="M66.2009,-1307.16C60.7396,-1292.04 55.8087,-1275.67 53,-1260 24.7703,-1102.5 35.9829,-1058.62 57,-900 58.1734,-891.144 59.7272,-882.008 61.5153,-872.892"/>
<ellipse fill="none" stroke="#e204e2" cx="67.7016" cy="-1311.19" rx="4.00001" ry="4.00001"/>
<polygon fill="#e204e2" stroke="#e204e2" points="61.5305,-872.817 67.9488,-863.926 62.5356,-867.919 63.5406,-863.021 63.5406,-863.021 63.5406,-863.021 62.5356,-867.919 59.1325,-862.116 61.5305,-872.817 61.5305,-872.817"/>
</g>
<!-- Competition&#45;&gt;League -->
<g id="edge28" class="edge"><title>Competition&#45;&gt;League</title>
<path fill="none" stroke="#fd9e98" d="M111.442,-1307.14C115.107,-1295.05 119.044,-1282.05 122.982,-1269.06"/>
<ellipse fill="none" stroke="#fd9e98" cx="110.239" cy="-1311.11" rx="4.00001" ry="4.00001"/>
<polygon fill="#fd9e98" stroke="#fd9e98" points="123.088,-1268.71 130.295,-1260.44 124.538,-1263.92 125.988,-1259.14 125.988,-1259.14 125.988,-1259.14 124.538,-1263.92 121.681,-1257.83 123.088,-1268.71 123.088,-1268.71"/>
</g>
</g>
</svg>
